<svg width="160" height="160" viewBox="0 0 160 160" fill="none" xmlns="http://www.w3.org/2000/svg">
<circle cx="80" cy="80" r="80" fill="#121212"/>
<path d="M59.9082 118.164C58.834 118.594 57.7956 118.773 56.793 118.701C55.9336 118.63 55.0384 118.379 54.1074 117.949C53.1764 117.52 52.4245 116.624 51.8516 115.264C54.3581 110.537 56.7572 106.133 59.0488 102.051C61.3405 97.8971 63.3457 94.2448 65.0645 91.0938C67.0697 87.4414 68.9674 84.1113 70.7578 81.1035C70.6862 80.9603 70.6146 80.8171 70.543 80.6738C70.4714 80.459 70.3997 80.2441 70.3281 80.0293C69.1107 77.2363 67.7858 73.9421 66.3535 70.1465C65.1361 66.9238 63.6322 63.0208 61.8418 58.4375C60.0514 53.7826 58.1178 48.4831 56.041 42.5391C56.3275 41.8945 56.6855 41.3216 57.1152 40.8203C57.5449 40.319 57.9746 39.8893 58.4043 39.5312C58.9056 39.1732 59.4069 38.8151 59.9082 38.457C60.4095 38.3138 60.9108 38.1348 61.4121 37.9199C61.8418 37.7767 62.2715 37.6693 62.7012 37.5977C63.1309 37.4544 63.4889 37.4544 63.7754 37.5977C65.4941 42.1094 67.1413 46.3346 68.7168 50.2734C70.2923 54.1406 71.6888 57.5781 72.9062 60.5859C74.2669 64.0951 75.5918 67.3535 76.8809 70.3613C78.6712 67.4251 80.569 64.2383 82.5742 60.8008C84.293 57.9362 86.2266 54.6777 88.375 51.0254C90.5951 47.3014 92.8509 43.4701 95.1426 39.5312C95.7155 39.1732 96.2884 38.8867 96.8613 38.6719C97.5059 38.457 98.1146 38.278 98.6875 38.1348C99.332 37.9915 99.9766 37.9557 100.621 38.0273C101.266 38.099 101.91 38.2064 102.555 38.3496C103.128 38.4928 103.701 38.6719 104.273 38.8867C104.918 39.1016 105.527 39.4238 106.1 39.8535C102.232 45.9408 98.7949 51.3835 95.7871 56.1816C92.7793 60.9082 90.237 64.9902 88.1602 68.4277C85.7253 72.3665 83.6126 75.8757 81.8223 78.9551C81.679 79.1699 81.5716 79.3848 81.5 79.5996C81.4284 79.7428 81.321 79.9219 81.1777 80.1367C83.2546 84.6484 85.5104 89.1243 87.9453 93.5645C90.0221 97.4316 92.4212 101.585 95.1426 106.025C97.8639 110.465 100.729 114.619 103.736 118.486C102.877 119.059 101.982 119.453 101.051 119.668C100.12 119.883 99.2604 120.026 98.4727 120.098C97.6133 120.169 96.7539 120.169 95.8945 120.098C93.7461 119.74 91.8841 118.809 90.3086 117.305C88.7331 115.801 87.1576 113.796 85.582 111.289C84.3646 109.427 82.8249 106.777 80.9629 103.34C79.1725 99.9023 77.2389 95.8919 75.1621 91.3086C73.3001 95.1042 71.653 98.5417 70.2207 101.621C68.86 104.629 67.6068 107.279 66.4609 109.57C65.3867 111.862 64.3125 113.724 63.2383 115.156C62.2357 116.66 61.1257 117.663 59.9082 118.164Z" fill="#4723D9"/>
</svg>
